<svg width="52" height="52" viewBox="0 0 52 52" fill="none" xmlns="http://www.w3.org/2000/svg">
<path d="M20.6917 32.825L39.0542 14.4625C39.4876 14.0292 39.9931 13.8125 40.5709 13.8125C41.1487 13.8125 41.6542 14.0292 42.0876 14.4625C42.5209 14.8958 42.7376 15.4108 42.7376 16.0073C42.7376 16.6039 42.5209 17.1181 42.0876 17.55L22.2084 37.4833C21.7751 37.9167 21.2695 38.1333 20.6917 38.1333C20.114 38.1333 19.6084 37.9167 19.1751 37.4833L9.8584 28.1667C9.42507 27.7333 9.21707 27.2191 9.2344 26.624C9.25173 26.0289 9.47779 25.5139 9.91256 25.0792C10.3473 24.6444 10.8623 24.4277 11.4574 24.4292C12.0525 24.4306 12.5667 24.6473 13.0001 25.0792L20.6917 32.825Z" fill="#0C2A6C"/>
</svg>
