<svg xmlns="http://www.w3.org/2000/svg" width="28" height="32" viewBox="0 0 28 32" fill="none">
  <path d="M3.22279 13.7267C3.12106 13.8304 2.99968 13.9128 2.86576 13.969C2.73183 14.0252 2.58804 14.0541 2.44279 14.0541C2.29754 14.0541 2.15375 14.0252 2.01982 13.969C1.8859 13.9128 1.76452 13.8304 1.66279 13.7267C1.45573 13.5161 1.3397 13.2325 1.3397 12.9371C1.3397 12.6417 1.45573 12.3582 1.66279 12.1475L11.3124 2.40033C13.4884 0.710728 15.6772 -0.100472 17.8564 0.00992805C20.602 0.150728 22.7396 1.19713 24.554 2.91393C26.4036 4.66433 27.6004 7.16193 27.6004 10.1891C27.6004 12.5123 26.9252 14.5571 25.4996 16.3715L11.8948 30.3875C10.5188 31.5155 8.98919 32.0611 7.35079 31.9955C5.27079 31.9091 3.72359 31.2371 2.57319 30.0995C1.22599 28.7699 0.400391 27.1363 0.400391 24.9395C0.400391 23.1923 1.00359 21.5795 2.24839 20.0659L14.2228 7.84033C15.1828 6.81633 16.122 6.20833 17.082 6.06113C17.7227 5.96077 18.3783 6.01835 18.9917 6.22886C19.6051 6.43938 20.1579 6.79647 20.602 7.26913C21.4532 8.16993 21.818 9.29313 21.69 10.5715C21.602 11.4435 21.2452 12.2467 20.5892 13.0163L9.58119 24.2931C9.48013 24.3972 9.35935 24.4801 9.22592 24.537C9.09249 24.5939 8.94906 24.6236 8.804 24.6245C8.65895 24.6254 8.51516 24.5974 8.38104 24.5422C8.24691 24.4869 8.12513 24.4055 8.02279 24.3027C7.81444 24.0933 7.69669 23.8105 7.69489 23.5151C7.6931 23.2197 7.80741 22.9354 8.01319 22.7235L18.9684 11.5043C19.2884 11.1283 19.4564 10.7491 19.4964 10.3459C19.5604 9.70593 19.4068 9.23393 19.0084 8.81313C18.807 8.59785 18.5556 8.43557 18.2765 8.34068C17.9974 8.24578 17.6993 8.22121 17.4084 8.26913C17.0196 8.32833 16.4756 8.68193 15.8052 9.39553L3.88039 21.5667C3.02119 22.6147 2.60519 23.7267 2.60519 24.9411C2.60519 26.4675 3.15719 27.5603 4.11239 28.5027C4.87239 29.2547 5.90439 29.7027 7.44039 29.7667C8.52839 29.8099 9.53639 29.4499 10.4132 28.7395L23.8484 14.8995C24.8804 13.5763 25.3956 12.0195 25.3956 10.1907C25.3956 7.81953 24.4724 5.89633 23.0468 4.54593C21.5908 3.16673 19.9268 2.35393 17.746 2.24193C16.1332 2.15873 14.442 2.78593 12.7588 4.07553L3.22279 13.7267Z" fill="#0C2A6C"/>
</svg>