<svg xmlns="http://www.w3.org/2000/svg" width="37" height="37" viewBox="0 0 37 37" fill="none">
  <g clip-path="url(#clip0_129_241)">
    <path d="M2.49607 24.0837C2.54023 23.8158 2.86573 23.3852 3.03619 23.1606C3.90797 22.0159 5.29625 20.4705 6.29947 19.4166C6.54386 19.16 6.84986 18.8169 7.16715 18.6676C7.97322 18.2874 9.17154 18.6006 10.0546 18.48C10.6091 17.6342 11.2776 16.8873 12.327 16.7111L12.3393 3.65553C9.95809 2.80968 10.9593 -0.634506 13.4832 0.103165L24.2291 4.67446C24.4786 4.72907 24.6655 4.52198 24.8975 4.45295C26.7356 3.91 28.3292 4.88567 28.8776 6.67421L32.1624 8.00429C32.3103 7.36964 32.9603 6.85554 33.5938 6.77827C34.9636 6.61136 36.7554 6.70512 36.928 8.42876C37.1467 10.614 36.7678 13.1453 36.928 15.3676C36.8756 15.8858 35.9371 18.207 35.5869 18.5717C34.5519 19.6473 32.1932 19.1652 32.0094 17.5281C31.8256 15.891 32.2158 13.8253 32.0135 12.2026C32.0032 12.1181 32.0187 12.0306 31.9334 11.9749L27.2449 10.0865L28.0171 15.4026L28.9361 15.4068V16.641H28.244C28.512 19.6762 29.2205 22.6815 29.5409 25.7125C29.5686 25.9783 29.5429 26.2472 29.5512 26.512H30.7813V27.7463H29.5512V30.2138C30.8902 30.1993 31.5874 31.4326 31.3954 32.6823C32.6543 32.7987 34.1996 32.5216 35.4247 32.6885C37.4588 32.9656 37.5697 36.7683 35.2768 36.9991L1.62018 36.9919C0.890098 36.9167 0.141535 36.2192 0.0429582 35.4898C-0.201429 33.6889 0.581021 32.47 2.49607 32.6813V24.0826V24.0837ZM23.3255 5.61407L12.8466 1.23955C12.0025 1.38791 12.0662 2.29042 12.8466 2.51708L22.8285 6.769L23.3265 5.61407H23.3255ZM13.5643 4.22527V16.7183C14.584 16.8563 15.2976 17.6053 15.7926 18.4543C17.0001 18.4625 17.9459 18.5274 18.985 19.1848C21.5716 20.8218 21.5993 24.741 19.0312 26.408C18.6472 26.6573 17.647 27.1302 17.2147 27.1302H15.4085V32.6823H20.3281C20.1217 31.4326 20.8395 30.2024 22.1723 30.2148V27.7473H20.9422V26.513H22.1723C22.1816 26.2225 22.1528 25.9268 22.1826 25.6363C22.4711 22.7917 23.2474 19.8142 23.4785 16.9872C23.4877 16.8718 23.4805 16.7564 23.4805 16.642H22.7884V15.4088L23.7074 15.4047L24.4714 10.0968C23.9498 9.89277 23.5206 9.46315 23.2371 8.98304C23.0544 8.67293 22.9907 8.24743 22.6898 8.06713L13.5654 4.22733L13.5643 4.22527ZM25.6132 5.55637C23.3111 5.86545 23.6571 9.37145 25.9747 9.23958C28.4391 9.09946 28.1146 5.22153 25.6132 5.55637ZM32.0115 9.31479L28.8971 8.00429C28.7759 8.41433 28.6424 8.80377 28.3991 9.15922L32.0115 10.6253V9.31376V9.31479ZM35.5253 8.17943C35.2604 7.91362 33.1831 7.76114 33.2457 8.58742L33.2385 17.2211C33.1892 17.9515 34.406 18.0793 34.7387 17.6435C34.8425 17.5075 35.6475 15.4768 35.6814 15.2739C35.5705 13.1742 35.8909 10.8015 35.704 8.73269C35.6896 8.5699 35.6382 8.29379 35.5243 8.17943H35.5253ZM24.9396 15.4078H26.7838L26.0178 10.5223L25.7508 10.4687L24.9396 15.4088V15.4078ZM23.4025 26.513H28.322L26.9348 16.6462L24.8308 16.6379L23.4025 26.5141V26.513ZM12.7008 17.8959C10.3986 18.205 10.7446 21.711 13.0622 21.5791C15.5266 21.439 15.2021 17.561 12.7008 17.8959ZM3.72622 24.3917V32.6823H5.57042V25.4714C5.57042 24.9862 6.54181 24.0559 7.07576 24.0517C9.22904 24.1846 11.637 23.8519 13.7594 24.0414C14.6836 24.1239 15.4363 24.9594 15.4096 25.8949C17.2106 26.0711 19.0641 25.5817 19.5806 23.6417C20.1967 21.3287 18.3001 19.4773 16.0226 19.7246C15.8686 23.8148 10.031 23.8189 9.87389 19.7246C8.87992 19.8245 7.78633 19.363 7.14353 20.3407L3.72417 24.3907L3.72622 24.3917ZM6.80057 25.7805V32.6823H14.1794V25.7805C14.1794 25.5528 13.7707 25.2551 13.5274 25.2767C11.5938 25.4137 9.43133 25.1016 7.52654 25.2747C7.20925 25.3035 6.86218 25.4292 6.80057 25.7805ZM28.322 27.7463H23.4025V30.2138H28.322V27.7463ZM21.5583 32.6823H30.1673C30.1868 32.1517 30.235 31.5449 29.5861 31.4532C27.2377 31.6067 24.5998 31.2327 22.2853 31.4439C21.4946 31.516 21.5398 31.9972 21.5593 32.6823H21.5583ZM35.5253 34.0917C35.4216 33.9876 35.1289 33.9124 34.9739 33.9114L1.91694 33.9135C0.967111 33.9361 0.998943 35.8462 1.99189 35.77L35.0488 35.7679C35.819 35.8411 35.8672 34.4348 35.5253 34.0907V34.0917Z" fill="#0C2A6C"/>
  </g>
  <defs>
    <clipPath id="clip0_129_241">
      <rect width="37" height="37" fill="white"/>
    </clipPath>
  </defs>
</svg>
