<svg xmlns="http://www.w3.org/2000/svg" width="105" height="104" viewBox="0 0 105 104" fill="none">
  <g clip-path="url(#clip0_131_238)">
    <path d="M7.08385 67.6943C7.20915 66.9414 8.13289 65.7309 8.61661 65.0996C11.0906 61.8823 15.0303 57.5384 17.8773 54.576C18.5708 53.8549 19.4392 52.8905 20.3396 52.4706C22.6271 51.4021 26.0277 52.2824 28.5338 51.9436C30.1073 49.5661 32.0043 47.4665 34.9824 46.9713L35.0174 10.2747C28.2599 7.89714 31.101 -1.78381 38.2636 0.289645L68.7586 13.1387C69.4667 13.2922 69.997 12.7101 70.6556 12.5161C75.8716 10.9899 80.3941 13.7324 81.9502 18.7596L91.2721 22.4982C91.6917 20.7143 93.5363 19.2693 95.3342 19.0521C99.2215 18.583 104.306 18.8465 104.796 23.6913C105.417 29.8335 104.341 36.9487 104.796 43.1951C104.647 44.6517 101.984 51.1762 100.99 52.2013C98.053 55.2246 91.3595 53.8694 90.8379 49.2678C90.3163 44.6662 91.4236 38.86 90.8496 34.2989C90.8204 34.0615 90.8641 33.8153 90.6223 33.659L77.317 28.3508L79.5083 43.2936L82.1163 43.3052V46.7744H80.1523C80.9128 55.3057 82.9235 63.753 83.8327 72.2727C83.9113 73.0199 83.8385 73.7757 83.8618 74.5199H87.3528V77.9892H83.8618V84.9248C87.6617 84.8843 89.6403 88.3507 89.0953 91.8634C92.6679 92.1906 97.0535 91.4116 100.53 91.8808C106.302 92.6598 106.617 103.348 100.11 103.997L4.59821 103.977C2.52636 103.765 0.402061 101.805 0.122318 99.7547C-0.571213 94.6927 1.64925 91.2668 7.08385 91.8605V67.6914V67.6943ZM66.1943 15.7797L36.4569 3.48381C34.0616 3.90082 34.2423 6.43761 36.4569 7.07471L64.7839 19.026L66.1972 15.7797H66.1943ZM38.4938 11.8761V46.9916C41.3874 47.3797 43.4126 49.485 44.8172 51.8712C48.244 51.8944 50.9278 52.0768 53.8768 53.9244C61.2171 58.5259 61.2958 69.5419 54.0079 74.2274C52.9181 74.9282 50.0799 76.2574 48.8531 76.2574H43.7273V91.8634H57.6883C57.1026 88.3507 59.1395 84.893 62.9218 84.9277V77.9921H59.4309V74.5228H62.9218C62.9481 73.7062 62.8665 72.8751 62.951 72.0584C63.7698 64.0629 65.9728 55.6938 66.6284 47.7474C66.6547 47.4231 66.6343 47.0988 66.6343 46.7773H64.6702V43.3109L67.2783 43.2994L69.4463 28.3798C67.966 27.8064 66.7479 26.5988 65.9436 25.2493C65.425 24.3776 65.2443 23.1816 64.3905 22.6749L38.4967 11.8819L38.4938 11.8761ZM72.6866 15.6176C66.1535 16.4863 67.1355 26.341 73.7124 25.9704C80.7059 25.5765 79.7851 14.6764 72.6866 15.6176ZM90.8437 26.1818L82.0056 22.4982C81.6617 23.6508 81.2829 24.7454 80.5923 25.7445L90.8437 29.8653V26.1789V26.1818ZM100.815 22.9905C100.064 22.2434 94.1686 21.8148 94.3464 24.1373L94.326 48.4048C94.1861 50.458 97.6392 50.8171 98.5833 49.5921C98.8776 49.2099 101.162 43.5021 101.258 42.9316C100.944 37.0298 101.853 30.3605 101.322 24.5456C101.282 24.088 101.136 23.3119 100.813 22.9905H100.815ZM70.7751 43.3081H76.0086L73.8347 29.5758L73.0771 29.4252L70.7751 43.3109V43.3081ZM66.4128 74.5228H80.3738L76.4369 46.7889L70.4662 46.7657L66.4128 74.5257V74.5228ZM36.0431 50.3016C29.51 51.1704 30.492 61.0251 37.0689 60.6544C44.0625 60.2606 43.1416 49.3605 36.0431 50.3016ZM10.5748 68.5602V91.8634H15.8084V71.5951C15.8084 70.2311 18.565 67.6161 20.0803 67.6045C26.1909 67.9781 33.0242 67.0427 39.0475 67.5756C41.6701 67.8073 43.806 70.1558 43.7303 72.7853C48.8414 73.2805 54.1012 71.9049 55.5669 66.452C57.3153 59.9507 51.9332 54.7468 45.4699 55.4418C45.0328 66.9385 28.4668 66.9501 28.0209 55.4418C25.2002 55.7227 22.0968 54.4254 20.2726 57.1736L10.569 68.5573L10.5748 68.5602ZM19.2993 72.4638V91.8634H40.2393V72.4638C40.2393 71.8239 39.0795 70.9869 38.3889 71.0478C32.9019 71.4329 26.765 70.5555 21.3595 71.042C20.4591 71.123 19.4742 71.4763 19.2993 72.4638ZM80.3738 77.9892H66.4128V84.9248H80.3738V77.9892ZM61.1793 91.8634H85.6102C85.6656 90.372 85.8025 88.6663 83.9609 88.4086C77.2966 88.8401 69.8105 87.7889 63.2424 88.3825C60.9986 88.5852 61.1268 89.9376 61.1822 91.8634H61.1793ZM100.815 95.825C100.521 95.5325 99.6906 95.3211 99.2506 95.3182L5.44036 95.324C2.74491 95.3877 2.83525 100.757 5.65308 100.542L99.4633 100.537C101.649 100.742 101.786 96.7893 100.815 95.8221V95.825Z" fill="#0C2A6C"/>
  </g>
  <defs>
    <clipPath id="clip0_131_238">
      <rect width="105" height="104" fill="white"/>
    </clipPath>
  </defs>
</svg>