<svg xmlns="http://www.w3.org/2000/svg" width="88" height="103" viewBox="0 0 88 103" fill="none">
  <g clip-path="url(#clip0_131_247)">
    <path d="M61.8326 0C63.1522 0.639752 64.2171 1.59669 64.4263 3.13693C64.9466 6.97007 64.0803 11.8515 64.437 15.8029C64.96 21.6279 73.4116 21.3645 73.8891 16.0045C74.2458 12.0128 73.4277 7.27113 73.9025 3.34122C74.1197 1.55906 74.9968 0.80641 76.4908 0H78.2986C87.7131 5.05081 90.7681 17.2518 85.2857 26.4207C84.3523 27.9824 83.0326 29.1678 82.0671 30.6409C79.0147 35.2858 78.9986 40.4844 79.1006 45.8793C86.3908 45.5111 89.1749 54.438 82.7349 58.048C84.8351 61.099 84.076 64.6498 81.3241 66.932C84.0304 70.2248 83.3947 75.617 79.1032 77.0686C80.0608 78.9233 80.5838 80.5899 79.9696 82.6624C79.7711 83.3317 79.2132 83.9983 79.114 84.6219C78.5158 88.4416 79.9454 93.0489 78.4515 96.8363C75.3482 104.696 64.1044 105.121 60.2662 97.6535C58.4665 94.151 59.593 90.2641 59.1102 86.4982C54.875 86.0546 51.1843 83.7403 47.2844 82.493C44.4413 81.5845 41.8288 81.9151 38.8731 81.9178C38.6451 81.9984 38.2052 83.415 37.9772 83.837C35.8663 87.7401 30.0084 87.7132 27.8197 83.8908L4.7395 83.6811C1.84273 83.1489 0.439944 81.2189 0.203911 78.3696C0.657201 70.3915 -0.412993 61.7253 0.203911 53.8278C0.431897 50.8952 1.85346 48.8442 4.91116 48.484L27.1841 48.5055C29.2172 42.0328 38.4627 43.0542 38.7497 49.9033C40.4743 49.9383 42.2365 49.984 43.8485 49.277C46.359 48.1722 47.6867 45.1751 49.4892 43.2612C51.8924 40.7129 55.5187 38.92 59.0297 38.8367C58.8554 36.0035 57.812 32.9983 56.2644 30.6409C55.4409 29.3883 54.2769 28.2996 53.4454 27.0255C47.4561 17.8405 50.4199 5.19059 60.0329 0H61.8407L61.8326 0ZM61.2291 15.5933C60.8724 11.6902 61.4947 7.27919 61.2291 3.31972L60.749 3.03479C53.2764 7.94851 51.0529 17.9991 56.1276 25.5336C59.6493 30.7645 61.779 32.3155 62.2323 39.3367C62.3932 41.8177 60.9958 46.7476 64.8447 45.874V33.6999C64.8447 33.4122 65.6065 32.1838 65.8532 31.8935C68.2618 29.0496 73.0576 30.4151 73.4787 34.1004C73.6128 35.2724 73.6933 37.2561 72.1215 37.3851C69.5707 37.5948 71.3142 34.0036 69.4661 33.4794C68.9243 33.3262 67.8568 34.009 67.8568 34.3047V45.874H70.4666V42.5542C70.4666 42.1322 71.4644 41.3366 71.9713 41.3366C72.4273 41.3366 73.476 41.8849 73.476 42.3526V45.874H76.0858C75.8792 40.0678 76.0402 34.5869 79.1354 29.5146C80.0554 28.0066 81.4072 26.754 82.3541 25.2944C87.2491 17.7437 84.9799 7.89744 77.569 3.0321L77.0889 3.31703V15.9938C77.0889 18.8377 74.1868 22.1494 71.51 22.8778C66.328 24.2837 61.7119 20.8672 61.2291 15.5933ZM59.2202 41.8527C57.1817 42.0059 55.0279 42.7558 53.373 43.9386C50.0229 46.3309 47.3541 52.9193 42.4565 52.9193H38.7416V78.8749H46.0694C47.5017 78.8749 53.7726 81.9258 55.854 82.5495C61.8702 84.3558 67.9319 83.9257 74.16 84.087C76.4827 83.6542 77.7595 81.7162 76.8395 79.426C76.2092 77.8535 73.645 77.9449 74.117 75.7998C74.5033 74.0472 76.5659 74.6386 77.746 74.402C80.5409 73.8402 80.5972 69.319 77.8882 68.3163C76.8556 67.9346 75.1148 68.0878 75.324 66.346C75.5225 64.7009 77.3008 65.1579 78.3495 64.9482C81.1793 64.3837 81.8176 60.2764 79.173 58.9808C78.0572 58.4351 76.3325 58.505 76.6919 56.6476C77.0084 55.0106 79.3607 55.6906 80.557 55.4864C84.1994 54.8627 84.1458 49.5162 80.4041 49.0942C75.0987 48.4975 68.4067 49.7985 63.1898 49.0431C62.0043 48.8711 60.6176 48.0647 59.939 47.0701C59.7968 46.8605 59.2228 45.7073 59.2228 45.5729V41.85L59.2202 41.8527ZM26.8971 70.3216V51.5081H4.91384C4.03676 51.5081 3.46814 52.637 3.3984 53.4112C2.65812 61.5183 3.97507 70.7517 3.40376 78.9798C3.28575 79.4743 4.13064 80.4851 4.51151 80.4851H26.8971V76.9637C26.8971 76.6062 27.6347 75.7971 28.0531 75.7057C31.084 75.0552 29.818 79.9636 30.1962 81.7054C30.7487 84.2644 34.882 84.4069 35.5954 81.6543L35.6383 49.2904C34.6298 46.4196 30.4134 46.5621 30.1023 49.7904C29.4827 56.1987 30.6012 63.5908 30.0942 70.1039C29.9977 72.0876 27.2619 72.1468 26.8998 70.3243L26.8971 70.3216ZM62.2323 86.9229V94.065C62.2323 97.1078 66.2743 100.019 69.1577 100.019C72.041 100.019 76.0831 97.2127 76.0831 94.2666V86.7213L73.4733 87.1218C73.1729 89.6405 74.2807 93.4548 72.4702 95.4708C70.7589 97.3766 67.7039 97.4438 65.939 95.5783C65.7164 95.3418 64.842 93.8338 64.842 93.6591V87.1191L62.2323 86.9175V86.9229ZM70.4639 87.1245H67.8541V92.8581C67.8541 94.1241 70.4639 93.9037 70.4639 93.0597V87.1245Z" fill="#0C2A6C"/>
  </g>
  <defs>
    <clipPath id="clip0_131_247">
      <rect width="88" height="103" fill="white"/>
    </clipPath>
  </defs>
</svg>