<svg width="35" height="35" viewBox="0 0 35 35" fill="none" xmlns="http://www.w3.org/2000/svg">
<path d="M15.6498 29.6498C15.2123 30.0873 14.6189 30.333 14.0002 30.333C13.3814 30.333 12.7881 30.0873 12.3505 29.6498L1.8505 19.1498C1.41307 18.7123 1.16733 18.1189 1.16733 17.5002C1.16733 16.8815 1.41307 16.2881 1.8505 15.8505L12.3505 5.35051C12.7906 4.92547 13.38 4.69028 13.9918 4.6956C14.6036 4.70092 15.1888 4.94631 15.6214 5.37893C16.054 5.81155 16.2994 6.39678 16.3047 7.00857C16.31 7.62036 16.0749 8.20977 15.6498 8.64984L9.33349 15.1668L31.5002 15.1668C32.119 15.1668 32.7125 15.4127 33.1501 15.8503C33.5877 16.2878 33.8335 16.8813 33.8335 17.5002C33.8335 18.119 33.5877 18.7125 33.1501 19.1501C32.7125 19.5877 32.119 19.8335 31.5002 19.8335L9.3335 19.8335L15.6498 26.3505C16.0873 26.7881 16.333 27.3815 16.333 28.0002C16.333 28.6189 16.0873 29.2123 15.6498 29.6498Z" fill="white"/>
</svg>
