<svg width="43" height="43" viewBox="0 0 43 43" fill="none" xmlns="http://www.w3.org/2000/svg">
<path d="M19.8472 41.0999L19.3312 40.7506C16.7487 38.9437 14.349 36.8887 12.1663 34.615C8.33125 30.5972 4.03125 24.5745 4.03125 17.4661C4.03125 8.72094 11.1289 0 21.5 0C31.8711 0 38.9688 8.72094 38.9688 17.4688C38.9688 24.5772 34.6687 30.5999 30.8337 34.6123C28.651 36.886 26.2513 38.941 23.6688 40.7479C23.4502 40.9002 23.2782 41.0166 23.1528 41.0972C22.6073 41.4601 22.0509 41.8041 21.5 42.1534C20.9491 41.8041 20.3927 41.4601 19.8472 41.0999ZM21.5 22.8438C22.9255 22.8438 24.2927 22.2775 25.3007 21.2694C26.3087 20.2614 26.875 18.8943 26.875 17.4688C26.875 16.0432 26.3087 14.6761 25.3007 13.6681C24.2927 12.66 22.9255 12.0938 21.5 12.0938C20.0745 12.0938 18.7073 12.66 17.6993 13.6681C16.6913 14.6761 16.125 16.0432 16.125 17.4688C16.125 18.8943 16.6913 20.2614 17.6993 21.2694C18.7073 22.2775 20.0745 22.8438 21.5 22.8438Z" fill="#0C2A6C"/>
</svg>
