<svg xmlns="http://www.w3.org/2000/svg" width="106" height="107" viewBox="0 0 106 107" fill="none">
  <g clip-path="url(#clip0_133_250)">
    <path d="M101.345 88.8351C108.449 91.5433 107.118 102.297 99.4213 103.008C89.0046 103.683 78.1063 106.362 67.7713 106.959C66.8957 107.009 65.81 107.015 64.9373 106.959C54.112 106.252 42.7175 103.613 31.8309 102.716C25.1443 100.739 25.01 91.2259 31.4077 88.7245C31.434 83.8935 31.0721 79.2228 32.1607 74.4821C34.5044 64.2815 42.0316 56.4163 51.7654 52.8462C52.6118 52.5346 54.7628 52.1677 55.3028 51.7979C55.6326 51.5708 56.1025 50.1789 56.4294 49.6518C57.0569 48.6472 58.131 47.692 59.2109 47.197C61.1722 46.3001 68.6469 46.3671 71.0548 46.5739C72.698 46.7136 74.5193 47.5377 75.6401 48.7578C76.2967 49.4742 77.0585 51.562 77.4 51.7979C77.9487 52.1736 80.3595 52.6278 81.2585 52.9598C90.5427 56.3755 97.9036 64.1446 100.367 73.7832C101.651 78.8064 101.24 83.7072 101.339 88.8351H101.345ZM68.9767 88.4333L72.6776 53.0238C72.4441 51.8591 71.4401 51.3757 70.3398 51.2155C68.8483 50.9971 62.5382 50.9709 61.3298 51.4863C59.9085 52.092 59.9697 53.2015 60.0106 54.5468L63.7319 88.4304H68.9738L68.9767 88.4333ZM35.9871 88.4333H59.1467L55.3232 56.8181C47.5479 58.5362 40.6715 64.7037 37.8492 72.0885C35.8353 77.3591 35.9667 82.8627 35.99 88.4333H35.9871ZM96.7216 88.4333C96.7449 82.8656 96.8733 77.3591 94.8624 72.0885C92.0429 64.7037 85.1636 58.5391 77.3883 56.8181L73.5649 88.4333H96.7245H96.7216ZM33.9732 93.072C31.0108 93.0371 30.4037 97.0032 32.9634 98.0981C44.6234 99.4871 56.2747 101.488 67.9902 102.163C78.6988 100.617 89.5679 99.7696 100.198 97.8972C102.515 95.9491 101.158 92.8536 98.1488 93.0022L33.9703 93.072H33.9732Z" fill="#0C2A6C"/>
    <path d="M70.2113 41.2799C68.7987 42.6864 66.4463 41.8478 66.1486 39.923C65.8509 37.9982 66.1252 35.092 67.6575 33.6069C68.4456 32.844 71.767 31.3763 71.9275 31.1114C72.4179 30.3106 71.2387 27.8849 70.8856 27.023C68.717 26.6502 66.9687 27.8529 64.6484 27.0346C62.5265 26.2862 58.741 21.1728 58.5163 18.986C58.2711 16.6273 60.6644 13.6134 60.4251 12.7369C60.3346 12.4078 57.9967 10.6519 57.6056 10.5122C56.4966 10.1074 55.3845 12.0322 54.5615 12.6903C51.5173 15.1189 48.7592 14.1317 45.429 12.8592C43.5406 12.137 42.128 11.2256 41.4392 9.2105C41.0773 8.15346 41.0189 5.78895 40.5957 5.09299C40.2688 4.5601 36.673 4.57466 36.2585 4.99981C35.3771 8.66888 35.6544 11.1673 31.6792 12.7485C28.4278 14.0414 25.3457 15.1334 22.3394 12.7922C21.4872 12.1283 20.2905 10.1074 19.1756 10.5122C18.7845 10.6548 16.4467 12.4078 16.3562 12.7369C16.1139 13.6279 18.5072 16.5516 18.2679 18.986C18.0403 21.2893 14.2226 26.3241 11.9548 27.0725C9.68704 27.8208 7.97962 26.5891 5.89569 27.023C5.53962 27.8907 4.3634 30.3135 4.85373 31.1114C5.04344 31.4171 8.28316 32.7595 9.12374 33.6069C11.0471 35.5492 10.8749 39.5328 10.6531 42.1244C10.4546 44.4423 9.3222 45.6188 7.43383 46.7602C6.61952 47.2524 4.76617 47.7125 4.72531 48.653C4.70196 49.1801 5.62426 52.0338 5.99201 52.2726C8.34445 52.4036 10.0373 51.3553 12.4452 52.3104C14.6283 53.1753 18.4343 58.6672 18.2942 61.0754C18.1979 62.7411 16.2453 65.5395 16.3182 66.3053C16.3795 66.9401 19.2311 68.9669 19.8819 68.7921C22.0155 66.614 24.8349 63.7777 28.1826 65.3822C29.6916 66.1073 29.9601 68.3815 28.5504 69.3571C27.2749 70.2423 26.7145 69.4939 25.8769 69.7269C25.442 69.8463 24.0731 71.5556 23.5361 71.9836C20.5561 74.3627 18.3146 73.792 15.3813 71.8322C12.3926 69.8346 10.621 67.5313 12.0657 63.8098C12.4306 62.875 13.6068 61.5676 13.4842 60.6649C13.4521 60.4261 11.1259 57.1239 10.8779 56.9259C10.0052 56.227 8.52249 56.9754 7.47177 57.0482C4.79536 57.2346 2.53631 56.2649 1.35717 53.781C-0.160531 50.5749 -1.03905 46.6146 2.22985 44.1919C3.0354 43.5949 5.38201 42.7621 5.80813 42.0953C6.28096 41.3586 5.80814 40.7558 5.82273 39.9492C5.83732 39.2386 6.07373 38.269 6.04455 37.771C5.96866 36.4839 3.301 35.7996 2.35244 35.1299C-1.06824 32.71 -0.172206 28.3887 1.49143 25.1448C3.3477 21.5223 7.08651 22.029 10.4809 22.5764C10.6911 22.5182 13.0552 19.5421 13.2332 19.2073C13.9979 17.7571 12.2759 16.2371 11.8468 14.7607C10.837 11.2693 12.667 9.21924 15.3784 7.39635C18.3671 5.3871 20.4919 4.79597 23.5332 7.24493C24.3475 7.90012 25.3836 9.62691 26.4197 9.49879C26.8167 9.44929 30.6168 8.10396 30.7598 7.92051C31.2355 4.70861 31.9535 0.698843 35.8937 0.180514C39.5333 -0.297047 44.0397 -0.032059 45.2743 4.08254C45.6508 5.34051 45.4319 7.6992 46.5702 8.23791C47.0751 8.47669 50.5775 9.59197 50.9015 9.50461C54.4973 5.78895 56.6717 4.23979 61.397 7.39635C64.8439 9.69971 66.1602 11.9419 64.4266 16.007C63.9508 17.1194 62.9089 17.7105 63.4955 19.0355C63.6327 19.35 65.9384 22.4104 66.1369 22.5036C66.8607 22.8356 69.9341 21.9736 71.4343 22.2299C75.6226 22.9433 78.153 30.4038 75.8415 33.7176C74.6331 35.4502 71.4781 36.3471 70.9614 37.1333C70.3719 38.0302 71.6036 39.8967 70.2113 41.2887V41.2799Z" fill="#0C2A6C"/>
    <path d="M36.1592 18.7472C46.9729 17.7367 57.2583 25.0603 59.0824 35.852C59.4969 38.3039 60.3433 43.7726 56.2367 42.8291C54.0536 42.3282 54.6928 39.0814 54.5497 37.5381C53.4552 25.6951 39.3026 19.6237 29.4492 26.0009C18.9099 32.8236 20.022 48.7404 31.2471 54.2469C33.01 55.1117 36.9735 55.6621 35.1552 58.7226C34.0023 60.6619 31.5244 59.5059 29.9367 58.8274C10.3291 50.4264 15.0106 20.7186 36.1592 18.7472Z" fill="#0C2A6C"/>
  </g>
  <defs>
    <clipPath id="clip0_133_250">
      <rect width="106" height="107" fill="white"/>
    </clipPath>
  </defs>
</svg>