<svg xmlns="http://www.w3.org/2000/svg" width="41" height="35" viewBox="0 0 41 35" fill="none">
  <g clip-path="url(#clip0_129_233)">
    <path d="M41.0001 25.8644V26.346C40.8161 26.5863 40.7198 26.7118 40.401 26.7493C39.0434 26.9102 37.4012 26.612 36.0115 26.7643L34.4474 28.8077L35.928 30.8285C37.2995 30.9669 38.8957 30.6891 40.2394 30.8414C40.6278 30.8854 40.7797 31.0152 41.0001 31.323V31.8046C38.9342 35.4173 34.0398 36.1316 31.1095 33.0907C30.9148 32.8891 30.6292 32.3356 30.3885 32.2884C23.7438 32.3334 17.0713 32.1897 10.4437 32.3613C8.09009 35.7659 3.15391 35.8903 0.561723 32.6466C0.0503465 32.0063 -0.443913 31.131 0.686893 30.8489L5.07104 30.8285C5.18444 30.7899 6.48749 29.0233 6.52707 28.9096C6.57307 28.7787 6.53242 28.7519 6.47465 28.6468C6.35269 28.428 5.10313 26.7965 4.98759 26.7622L0.524279 26.7407C-0.89538 26.2151 1.04314 24.3831 1.68718 23.9025C4.36816 21.901 7.79696 22.3333 10.05 24.7381C10.2116 24.9108 10.4041 25.3431 10.6085 25.3817L30.5083 25.3399C33.0245 21.5299 38.8572 21.8442 40.999 25.8622L41.0001 25.8644ZM38.838 25.3817C36.7058 23.2965 33.6857 23.7084 31.7921 25.9051C31.546 26.1915 31.4337 26.6796 31.025 26.7418L10.0479 26.7482C9.56966 26.7182 9.4263 26.1561 9.12996 25.8215C7.24706 23.6891 4.23658 23.3351 2.16111 25.3817H5.56423C5.7675 25.3817 6.06598 25.7979 6.1965 25.9523C6.71536 26.5659 7.48778 27.5742 7.91143 28.2467C8.28907 28.8474 8.22596 28.871 7.86435 29.4545C7.61081 29.8642 6.09272 31.9312 5.80387 32.1253C5.7461 32.164 5.52251 32.2862 5.48399 32.2862H2.16111C4.08038 34.1998 7.30804 33.9638 9.04972 31.9269C9.39207 31.5268 9.55682 30.9122 10.1367 30.8489L30.9961 30.8768C31.4444 30.983 31.6551 31.5826 31.9493 31.928C33.69 33.9649 36.9176 34.2009 38.838 32.2873H35.5151C35.3353 32.2873 35.0411 31.9773 34.917 31.8432C34.5373 31.4303 33.185 29.6776 32.9614 29.2282C32.7207 28.7465 32.8373 28.6468 33.0876 28.2478C33.4193 27.719 34.6378 26.007 35.0411 25.6295C35.0968 25.578 35.4038 25.3817 35.4348 25.3817H38.838Z" fill="#0C2A6C"/>
    <path d="M11.8784 22.5435C12.0068 22.6851 12.2539 22.758 12.3502 22.993C12.6294 23.6784 12.0731 24.2361 11.3906 23.9551C11.2248 23.8865 10.5369 23.1592 10.3678 22.9736C3.73063 15.6594 6.85559 3.76494 16.192 0.71008C27.9451 -3.13638 38.4358 9.38982 32.525 20.2974C32.0147 21.2403 30.6014 23.2654 29.7488 23.8564C28.9689 24.397 28.2061 23.614 28.7474 22.8524C28.879 22.6679 29.093 22.5971 29.2278 22.4502C35.3729 15.8042 33.23 5.15614 24.6029 2.11737C12.4572 -2.16028 2.76672 12.479 11.8784 22.5435Z" fill="#0C2A6C"/>
    <path d="M23.382 13.0175H25.8244C25.9667 13.0175 26.5262 13.2685 26.66 13.3832C27.2163 13.8595 27.289 14.6725 26.86 15.2603L18.969 23.7288C17.7569 24.6137 16.595 23.8146 16.656 22.3719C16.7566 19.9821 17.4209 17.3273 17.6146 14.9032C17.6264 14.7562 17.6124 14.6082 17.6146 14.4623H15.0117C14.9176 14.4623 14.4329 14.1931 14.3292 14.103C13.7761 13.6278 13.7119 12.7987 14.1366 12.2194C16.5694 9.76203 18.7989 7.09332 21.2167 4.6252C21.9442 3.88186 22.7048 2.87895 23.8206 3.70488C24.3149 4.07064 24.3652 4.52866 24.3406 5.10895C24.24 7.49878 23.5757 10.1535 23.382 12.5777C23.3702 12.7246 23.3842 12.8727 23.382 13.0185V13.0175ZM15.3744 13.0175H18.4576C18.6266 13.0175 19.1145 13.3253 19.1209 13.5559L18.0179 22.6519L25.7046 14.4623H22.3817C22.1688 14.4623 21.7441 13.8788 21.8543 13.6192L22.9819 4.90837L15.3744 13.0175Z" fill="#0C2A6C"/>
  </g>
  <defs>
    <clipPath id="clip0_129_233">
      <rect width="41" height="35" fill="white"/>
    </clipPath>
  </defs>
</svg>
