<svg xmlns="http://www.w3.org/2000/svg" width="39" height="39" viewBox="0 0 39 39" fill="none">
  <g clip-path="url(#clip0_129_237)">
    <path d="M27.0618 39C26.2624 38.7237 26.172 38.0074 26.0592 37.2648C25.2252 37.0524 24.4064 36.7436 23.6771 36.2864C21.9552 37.8642 21.171 36.0964 19.9357 35.0602C18.5867 34.9403 17.0985 35.1648 15.7657 35.048C14.2714 34.9159 14.435 33.267 14.1018 32.2247C12.5415 31.8031 11.0096 31.2402 9.64835 30.3584L9.49801 30.3655C8.67518 30.9365 7.81782 31.9189 6.72884 31.3855C6.43323 31.2412 4.01148 28.8558 3.80425 28.5307C3.05862 27.3614 4.23191 26.4521 4.77031 25.5144C3.90278 24.1236 3.29531 22.5946 2.88593 21.0077C1.83555 20.6683 0.195994 20.8542 0.0629198 19.3435C-0.0112362 18.4983 -0.037648 16.4319 0.0730782 15.6211C0.130981 15.1924 0.528173 14.7444 0.910128 14.5574C1.47595 14.2811 2.20532 14.3685 2.74879 14.1907C2.9997 14.1084 3.13684 13.1493 3.23843 12.8557C3.63155 11.7148 4.14049 10.6217 4.77031 9.59456C4.18315 8.59081 2.97431 7.66732 3.90481 6.45022C4.31318 5.91583 5.87554 4.3655 6.41393 3.94084C7.60551 2.99805 8.53703 4.06072 9.49903 4.74445C9.65953 4.80947 10.4854 4.24258 10.7109 4.13184C11.7958 3.59948 12.9346 3.19819 14.1028 2.88528C14.435 1.84698 14.2714 0.194045 15.7667 0.0619722C16.679 -0.0182872 18.4353 -0.0182872 19.3465 0.0619722C20.8561 0.195061 20.6702 1.83479 21.0105 2.88528C22.6003 3.28657 24.125 3.90528 25.5167 4.76985C26.4686 4.21921 27.4001 3.02649 28.5785 3.83417C28.9167 4.0658 31.24 6.42787 31.3873 6.72859C31.9206 7.81768 30.9383 8.67513 30.3674 9.49805C30.3023 9.65856 30.8692 10.4845 30.9799 10.7101C31.5122 11.7961 31.9206 12.9309 32.2263 14.1023C33.2686 14.4355 34.9173 14.272 35.0494 15.7664C35.1672 17.0983 34.9427 18.5867 35.0615 19.9369C36.0967 21.1712 37.8652 21.9565 36.2877 23.6786C36.7336 24.4111 37.0709 25.2218 37.2659 26.061C38.0146 26.1544 38.7196 26.2692 39.001 27.0627V29.6482C38.7114 30.5098 37.9841 30.4661 37.2507 30.6906C37.0556 31.5176 36.7265 32.309 36.2887 33.0324C36.6574 33.648 37.1491 34.0412 36.8332 34.8194C36.6483 35.2756 35.1296 36.771 34.6532 36.897C33.9675 37.0789 33.5713 36.6034 33.0319 36.2895C32.2954 36.7294 31.4929 37.0728 30.6538 37.2699C30.5136 38.0145 30.4679 38.7196 29.6481 39.002H27.0628L27.0618 39ZM28.354 17.7069H29.6847C29.7071 17.7069 30.0108 17.8928 30.0646 17.9354C30.5522 18.3174 30.5075 18.8975 30.6518 19.439C31.4868 19.6422 32.2995 19.9724 33.0309 20.4204L33.5307 20.0293L33.5144 15.9686C32.9577 15.7309 31.3415 15.7867 30.9819 15.3448C30.7788 15.0949 30.6284 14.085 30.5035 13.6939C30.0545 12.2868 29.4643 11.0646 28.676 9.81908C28.6242 9.56815 28.6475 9.39137 28.742 9.15872C28.934 8.68428 29.7802 7.91114 29.9163 7.51289C29.9346 7.46006 29.9681 7.42248 29.9184 7.3666L27.6977 5.16708C27.519 5.1366 26.1709 6.38113 25.726 6.44717C25.1317 6.53556 24.7772 6.08549 24.2998 5.83049C23.3418 5.31947 22.454 4.93748 21.4178 4.60628C21.0267 4.48132 20.017 4.33096 19.7671 4.12777C19.3252 3.76813 19.3811 2.15177 19.1434 1.59503H15.9709C15.8074 1.69866 15.7779 3.70819 15.3848 4.08917C15.14 4.3269 14.1038 4.47624 13.6965 4.60628C12.257 5.06549 11.0502 5.67912 9.75705 6.44717C8.92 6.5894 8.17031 5.42716 7.5151 5.1935C7.42774 5.162 7.39523 5.1488 7.32717 5.22906L5.16953 7.41333C5.12585 7.66732 6.74814 9.20342 6.44948 9.75508C5.68151 11.0484 5.06795 12.2543 4.60879 13.6949C4.46352 14.1521 4.34467 15.2005 4.00335 15.4474C3.60514 15.7349 1.68115 15.8375 1.59785 15.9696V19.1424C2.15453 19.3801 3.77072 19.3242 4.13033 19.7662C4.3335 20.0161 4.48384 21.0259 4.60879 21.4171C5.05779 22.8242 5.64799 24.0463 6.43628 25.2919C6.48809 25.5428 6.46472 25.7196 6.37025 25.9522C6.17826 26.4267 5.33206 27.1998 5.19594 27.5981C5.17766 27.6509 5.14413 27.6885 5.19391 27.7444L7.41453 29.9439C7.6563 29.9855 9.21358 28.3793 9.75603 28.6638C11.0492 29.4319 12.255 30.0455 13.6954 30.5047C14.1526 30.65 15.2009 30.7688 15.4478 31.1102C15.7352 31.5084 15.8378 33.4326 15.9699 33.5159L20.0881 33.5271L20.4152 33.074C20.015 32.3039 19.632 31.5095 19.441 30.653C17.8787 30.5209 17.5526 29.8667 17.7009 28.3631C16.9888 28.2625 16.2757 28.23 15.5666 28.103C4.18315 26.0579 3.85097 9.62707 15.1237 7.09941C16.9583 6.68795 18.6283 6.67779 20.4467 7.17662C25.1297 8.46077 28.3814 12.8557 28.355 17.7089L28.354 17.7069ZM26.0592 19.4411C26.1384 18.9788 26.1618 18.5755 26.4198 18.1671C26.5011 18.0381 26.7012 17.9395 26.7418 17.8044C27.0049 16.9175 26.3873 14.7271 26.0104 13.8524C23.5389 8.12754 16.0644 6.50813 11.3966 10.6704C6.73392 14.8287 7.54049 22.4513 12.9437 25.552C14.0916 26.2113 16.4423 27.0007 17.7456 26.7538C17.9295 26.7193 18.1936 26.3566 18.5247 26.2408C18.8234 26.1361 19.1383 26.126 19.4441 26.0579C19.6391 25.2187 19.9764 24.408 20.4223 23.6755C19.9246 22.9349 19.4451 22.4107 20.0668 21.5471C20.2435 21.3013 21.3488 20.1969 21.5926 20.0303C22.4388 19.4502 22.966 19.945 23.6781 20.4194C24.4146 19.9755 25.2181 19.6229 26.0602 19.4411H26.0592ZM29.0305 19.2359H27.6774C27.5535 19.6229 27.5962 20.3463 27.2853 20.6307C27.0689 20.8278 25.8672 21.0849 25.4659 21.2444C24.9804 21.4374 24.2419 21.9789 23.8711 22.0815C23.2707 22.2481 22.9365 21.7818 22.4977 21.4679H22.3483L21.4402 22.3944C21.6586 22.8607 22.196 23.1767 22.1157 23.7466C22.0741 24.0443 21.4178 25.0328 21.2462 25.4646C21.0846 25.87 20.8175 27.1165 20.594 27.3217C20.3248 27.5696 19.2572 27.5991 19.2246 27.7149L19.2368 29.0295C19.6239 29.1535 20.3471 29.1108 20.6316 29.4217C20.8317 29.6411 21.0826 30.8369 21.2451 31.2412C21.4798 31.8234 22.2661 32.819 22.0842 33.3768C22.0162 33.585 21.6078 34.0005 21.4686 34.2108V34.3602L22.3951 35.2684C22.8603 35.051 23.1783 34.5116 23.7472 34.5928C24.0966 34.6426 25.021 35.2847 25.4649 35.4625C25.9058 35.6393 27.0933 35.8546 27.3209 36.1168C27.6216 36.4632 27.5108 37.086 27.716 37.4842L29.0305 37.472C29.1636 37.0402 29.0965 36.3575 29.4673 36.0456C29.7182 35.8343 30.8113 35.6362 31.243 35.4635C31.8332 35.2278 32.8104 34.4455 33.3783 34.6243C33.5703 34.6843 34.2042 35.3121 34.3637 35.24L35.2698 34.3135C35.0524 33.8482 34.513 33.5302 34.5943 32.9612C34.644 32.6118 35.286 31.6872 35.4638 31.2433C35.6416 30.7993 35.8559 29.6147 36.118 29.3872C36.4644 29.0864 37.0871 29.1972 37.4853 28.992L37.4731 27.6773C37.0414 27.5442 36.3588 27.6113 36.0469 27.2405C35.8356 26.9885 35.6385 25.8974 35.4648 25.4646C35.2332 24.8865 34.4429 23.8919 34.6257 23.3291C34.6938 23.1208 35.1022 22.7053 35.2413 22.495V22.3457L34.3149 21.4374C33.8496 21.6548 33.5317 22.1943 32.9628 22.113C32.6205 22.0642 31.694 21.4242 31.245 21.2434C30.8367 21.0788 29.5953 20.8167 29.3881 20.5911C29.1169 20.2965 29.1565 19.6128 29.0336 19.2348L29.0305 19.2359Z" fill="#0C2A6C"/>
    <path d="M19.6096 14.8927H21.1689C21.498 14.8927 21.9745 15.7837 21.6017 16.0864C19.5568 18.5257 17.8278 21.5512 15.7636 23.9356C15.1785 24.6122 14.441 24.5106 14.2805 23.6003L15.3522 18.3906H13.9453C13.737 18.3906 13.2047 17.7302 13.3917 17.459C14.1495 15.5449 14.4674 13.192 15.2395 11.3196C15.4294 10.8594 15.657 10.7497 16.1476 10.706C16.8364 10.645 19.8046 10.6135 20.3369 10.7812C20.7331 10.9051 20.9485 11.2211 20.8885 11.6397L19.6106 14.8917L19.6096 14.8927ZM18.9249 12.3071H16.6058L15.1988 16.8697H16.5296C16.5855 16.8697 16.9034 17.1369 16.9491 17.209C17.3209 17.7963 16.5133 19.4929 16.6048 20.2152L19.381 16.4136H18.2027C17.9741 16.4136 17.5728 15.8081 17.714 15.547L18.9259 12.3071H18.9249Z" fill="#0C2A6C"/>
    <path d="M27.6531 23.0507C32.0364 22.556 35.1378 27.0982 33.0055 30.9893C31.0094 34.6325 25.4193 34.5248 23.5999 30.7881C22.0081 27.5198 23.9808 23.4652 27.6531 23.0507ZM28.1884 24.5716C23.1499 24.7981 23.6131 32.3476 28.4708 32.1586C33.4749 31.9646 33.2087 24.346 28.1884 24.5716Z" fill="#0C2A6C"/>
  </g>
  <defs>
    <clipPath id="clip0_129_237">
      <rect width="39" height="39" fill="white"/>
    </clipPath>
  </defs>
</svg>
