<svg width="27" height="26" viewBox="0 0 27 26" fill="none" xmlns="http://www.w3.org/2000/svg">
<path d="M19.8877 8.54489C20.9588 8.54489 21.8271 7.67657 21.8271 6.60545C21.8271 5.53433 20.9588 4.66602 19.8877 4.66602C18.8166 4.66602 17.9482 5.53433 17.9482 6.60545C17.9482 7.67657 18.8166 8.54489 19.8877 8.54489Z" fill="white"/>
<path fill-rule="evenodd" clip-rule="evenodd" d="M8.25091 2.72654C5.39643 2.72654 3.07908 5.04389 3.07908 7.89837V18.242C3.07908 21.0965 5.39643 23.4139 8.25091 23.4139H18.5946C21.4491 23.4139 23.7664 21.0965 23.7664 18.242V7.89837C23.7664 5.04389 21.4491 2.72654 18.5946 2.72654H8.25091ZM0.493164 7.89837C0.493164 3.61573 3.96827 0.140625 8.25091 0.140625H18.5946C22.8772 0.140625 26.3523 3.61573 26.3523 7.89837V18.242C26.3523 22.5247 22.8772 25.9998 18.5946 25.9998H8.25091C3.96827 25.9998 0.493164 22.5247 0.493164 18.242V7.89837Z" fill="white"/>
<path fill-rule="evenodd" clip-rule="evenodd" d="M13.4228 9.19138C11.2794 9.19138 9.54392 10.9269 9.54392 13.0703C9.54392 15.2136 11.2794 16.9491 13.4228 16.9491C15.5662 16.9491 17.3017 15.2136 17.3017 13.0703C17.3017 10.9269 15.5662 9.19138 13.4228 9.19138ZM6.95801 13.0703C6.95801 9.49874 9.85128 6.60547 13.4228 6.60547C16.9943 6.60547 19.8876 9.49874 19.8876 13.0703C19.8876 16.6418 16.9943 19.535 13.4228 19.535C9.85128 19.535 6.95801 16.6418 6.95801 13.0703Z" fill="white"/>
</svg>
