<svg xmlns="http://www.w3.org/2000/svg" width="126" height="52" viewBox="0 0 126 52" fill="none">
  <g clip-path="url(#clip0_134_255)">
    <path d="M25.7684 11.6961H53.8267V1.33035C53.8267 0.598483 55.1114 0.222291 55.7282 0.167573C57.5376 0.0102558 63.5929 -0.119701 65.1707 0.184672C65.5046 0.249651 66.3224 0.906277 66.3224 1.07385V11.6961H67.6003C67.7059 10.3897 67.0585 8.06077 68.7998 7.65379C69.7062 7.44176 76.1977 7.42466 77.1552 7.60591C77.6221 7.69483 78.566 8.65925 78.566 9.00809V21.1693H97.4408V16.6892C97.4408 15.9574 98.7254 15.5812 99.3422 15.5265C103.206 15.1913 113.736 15.1195 117.075 16.4362C128.801 21.0599 129.016 37.9475 117.426 42.8893C113.552 44.5411 104.171 44.6198 99.8534 44.2162C99.0969 44.1444 97.4408 43.7443 97.4408 42.797V38.3169H78.566V50.4781C78.566 50.8235 77.6221 51.7914 77.1552 51.8803C76.334 52.0342 69.2053 52.0239 68.5442 51.8324C67.0857 51.4118 67.7161 48.946 67.5969 47.7901H10.9725C10.9385 48.8879 11.3269 51.3981 9.97751 51.7777C8.97908 52.0581 2.5898 52.0547 1.42439 51.87C0.715609 51.7572 0.224913 51.4015 0.0613474 50.6799L0.00341797 9.25774C0.0443094 8.32752 0.504337 7.75981 1.4278 7.61617C2.62047 7.42808 8.44408 7.39388 9.56859 7.60591C11.2383 7.92055 11.0305 10.4068 10.9759 11.6961H13.0171V1.58684C13.0171 1.24143 13.961 0.27359 14.4279 0.184672C15.7909 -0.0718224 22.6334 -0.0307833 24.1259 0.164153C24.879 0.26333 25.7718 1.14909 25.7718 1.83992V11.6961H25.7684ZM21.9416 3.76192H16.8404V11.6961H21.9416V3.76192ZM62.7512 3.76192H57.3945V11.6961H62.7512V3.76192ZM7.40135 11.1866H3.5746V48.3065H7.40135V11.1866ZM74.7426 11.1866H71.1715V48.3065H74.7426V11.1866ZM67.6003 15.5367H10.9725V43.9529H67.6003V15.5367ZM101.015 40.3688H113.641C118.173 40.3688 122.504 34.0727 122.459 29.7397C122.412 25.2527 118.135 19.1208 113.385 19.1208H101.015V40.3688ZM97.4442 24.7534H78.5694V34.7362H97.4442V24.7534Z" fill="#0C2A6C"/>
    <path d="M106.205 35.4133C98.7799 27.9647 110.045 16.997 117.208 23.9873C124.875 31.4701 113.453 42.6875 106.205 35.4133ZM110.894 25.5844C106.471 26.3026 106.515 33.3579 111.109 33.9462C117.689 34.7875 117.423 24.5208 110.894 25.5844Z" fill="#0C2A6C"/>
  </g>
  <defs>
    <clipPath id="clip0_134_255">
      <rect width="126" height="52" fill="white"/>
    </clipPath>
  </defs>
</svg>