<svg width="267" height="61" viewBox="0 0 267 61" fill="none" xmlns="http://www.w3.org/2000/svg">
<g clip-path="url(#clip0_250_3)">
<path d="M132.635 60.8961C147.13 60.8961 158.881 49.2198 158.881 34.8162C158.881 20.4127 147.13 8.73633 132.635 8.73633C118.14 8.73633 106.389 20.4127 106.389 34.8162C106.389 49.2198 118.14 60.8961 132.635 60.8961Z" fill="url(#paint0_radial_250_3)"/>
<path d="M18.2261 41.138L18.3234 41.0736L20.2049 40.2596C19.9191 40.384 18.4324 41.0268 18.5429 40.9784C18.593 40.9565 18.6475 40.9331 18.7064 40.9082C19.0925 40.7413 19.6627 40.4953 20.4716 40.1454C25.851 37.8219 27.9241 32.6009 27.9241 32.6009C27.9241 32.6009 29.5463 29.7342 29.4682 24.1414C29.3902 18.5485 26.3505 14.6906 26.3505 14.6906C26.3505 14.6906 24.6664 12.1504 21.5487 10.3686C18.4309 8.58683 14.8756 8.68054 14.8756 8.68054H0V60.9545H6.95451L6.98545 41.3869L9.94848 41.3254L22.3281 60.956H31.2629L18.2276 41.1395L18.2261 41.138ZM20.2108 40.2581L20.2432 40.2435C20.2432 40.2435 20.2255 40.2508 20.2108 40.2581ZM6.58468 33.7678V16.1269H15.3264C15.3264 16.1269 16.4182 16.1093 17.3848 16.4271C17.9624 16.6159 18.3528 16.878 18.7875 17.1708C19.1087 17.386 19.6391 17.7477 20.1592 18.3479C20.4451 18.6788 20.7854 19.1473 21.1641 19.9907C22.0172 21.8881 22.1645 23.6685 22.1866 23.9569C22.2588 24.9305 22.3635 26.5644 21.6562 28.4809C21.3218 29.3887 20.5217 31.5555 18.288 32.8513C17.1535 33.5101 16.0631 33.7034 15.3986 33.7692H6.58468V33.7678Z" fill="white"/>
<path d="M32.8086 8.6792L32.8189 60.943L60.4262 60.9532V53.5888L39.7719 53.5786V38.5306H59.8133V31.093H39.7719V16.0333L60.4262 16.0231V8.6792H32.8086Z" fill="white"/>
<path d="M62.5078 8.7085L62.5388 60.8302H71.2555V38.6258H95.7038V60.8302H104.481V8.7085H95.7038V30.9261H71.2702L71.2864 8.7085H62.5078Z" fill="white"/>
<path d="M237.199 8.64404V15.9762H248.404V60.9898H255.795V15.9879H267V8.64844L237.199 8.64404Z" fill="white"/>
<path d="M240.121 27.7092C240.121 27.7092 238.21 18.9379 230.595 13.5456C230.595 13.5456 223.576 7.81221 214.206 8.86489C214.206 8.86489 205.933 9.07133 199.082 16.1795C199.082 16.1795 193.306 21.5103 191.927 30.9639C190.548 40.4176 194.778 47.4525 194.778 47.4525C194.778 47.4525 198.006 54.5197 205.871 58.4245C213.736 62.3292 221.069 60.439 221.069 60.439C221.069 60.439 232.163 58.6104 237.803 47.6692C243.443 36.7281 240.122 27.7092 240.122 27.7092H240.121ZM231.538 43.949C227.545 51.7218 219.695 53.0219 219.695 53.0219C219.695 53.0219 214.505 54.3645 208.937 51.5901C203.371 48.8156 201.086 43.7952 201.086 43.7952C201.086 43.7952 198.092 38.7968 199.067 32.0796C200.042 25.3623 204.131 21.5761 204.131 21.5761C208.982 16.5265 214.837 16.3786 214.837 16.3786C221.469 15.6305 226.437 19.7036 226.437 19.7036C231.827 23.5351 233.179 29.7678 233.179 29.7678C233.179 29.7678 235.531 36.1761 231.538 43.949Z" fill="white"/>
<path d="M184.197 31.9656C184.197 31.9656 189.186 27.9379 187.627 18.859C187.627 18.859 186.599 8.91197 174.655 8.63379H160.861V61H176.765C176.765 61 182.904 60.9693 186.77 56.6458C190.636 52.3223 190.87 47.8774 190.87 47.8774C190.87 47.8774 192.367 36.3667 184.197 31.9656ZM167.098 14.884H173.646C180.86 14.7801 180.194 21.3289 180.194 21.3289C180.173 28.4357 173.916 27.7739 173.916 27.7739H167.097V14.884H167.098ZM183.293 45.261C182.939 53.6693 175.933 53.6269 175.933 53.6269H167.097V36.8937H176.577C177.107 36.9259 177.92 37.0372 178.822 37.431C179.983 37.9376 180.682 38.6462 181.038 39.0152C182.457 40.4837 182.889 42.1132 183.042 42.7194C183.304 43.7589 183.322 44.6549 183.291 45.2596L183.293 45.261Z" fill="white"/>
<path d="M133.995 51.4703C144.537 51.4703 153.083 42.9783 153.083 32.503C153.083 22.0276 144.537 13.5356 133.995 13.5356C123.453 13.5356 114.907 22.0276 114.907 32.503C114.907 42.9783 123.453 51.4703 133.995 51.4703Z" fill="#49A5DE"/>
<path d="M133.995 48.5861C142.934 48.5861 150.18 41.3854 150.18 32.503C150.18 23.6206 142.934 16.4199 133.995 16.4199C125.056 16.4199 117.81 23.6206 117.81 32.503C117.81 41.3854 125.056 48.5861 133.995 48.5861Z" fill="#EEEEEE"/>
<path d="M139.607 14.3701C136.487 18.3802 133.366 22.3904 130.245 26.4005L149.549 8.64547L132.086 30.2745L163.456 0L129.965 38.6404L154.445 16.2061L138.572 37.6799C142.959 33.6156 147.346 29.5527 151.734 25.4884C152.251 26.8368 154.529 33.2071 151.465 40.1352C149.269 45.1043 145.469 47.7573 143.708 48.81C139.731 51.1891 136.018 51.4775 135.109 51.5302C128.206 51.9373 123.314 48.2609 121.949 47.1467C117.418 43.4528 115.964 38.8439 115.632 37.7033C114.03 32.1793 115.47 27.5967 116.056 26.0008C116.369 25.1531 118.694 19.0596 125.13 15.7097C126.51 14.9909 128.664 14.0802 131.436 13.7068C135.031 13.2222 137.956 13.8708 139.604 14.3686L139.607 14.3701Z" fill="url(#paint1_linear_250_3)"/>
</g>
<defs>
<radialGradient id="paint0_radial_250_3" cx="0" cy="0" r="1" gradientUnits="userSpaceOnUse" gradientTransform="translate(133.013 34.9164) scale(26.3336 26.167)">
<stop offset="0.73" stop-color="#EEEEEE"/>
<stop offset="0.85" stop-color="#ECECEC"/>
<stop offset="0.9" stop-color="#E5E5E5"/>
<stop offset="0.93" stop-color="#D9D9D9"/>
<stop offset="0.95" stop-color="#C8C8C8"/>
<stop offset="0.97" stop-color="#B2B2B2"/>
<stop offset="0.99" stop-color="#989898"/>
<stop offset="1" stop-color="#8C8C8C"/>
</radialGradient>
<linearGradient id="paint1_linear_250_3" x1="121.518" y1="48.4776" x2="148.988" y2="12.9157" gradientUnits="userSpaceOnUse">
<stop stop-color="#83D0EF"/>
<stop offset="0.5" stop-color="#1B8FD6"/>
<stop offset="1" stop-color="#0C2A6C"/>
</linearGradient>
<clipPath id="clip0_250_3">
<rect width="267" height="61" fill="white"/>
</clipPath>
</defs>
</svg>
