<?xml version="1.0" encoding="UTF-8"?>
<svg id="Logo" xmlns="http://www.w3.org/2000/svg" version="1.1" xmlns:xlink="http://www.w3.org/1999/xlink" viewBox="0 0 1920 460.17">
  <!-- Generator: Adobe Illustrator 29.6.1, SVG Export Plug-In . SVG Version: 2.1.1 Build 9)  -->
  <defs>
    <style>
      .st0 {
        fill: url(#Degradado_sin_nombre_772);
      }

      .st1 {
        fill: url(#Degradado_sin_nombre_84);
      }

      .st2 {
        fill: #eee;
      }

      .st3 {
        fill: url(#Degradado_sin_nombre_782);
      }

      .st4 {
        fill: url(#Degradado_sin_nombre_771);
      }

      .st5 {
        fill: #fff;
      }

      .st6 {
        fill: url(#Degradado_sin_nombre_78);
      }

      .st7 {
        fill: url(#Degradado_sin_nombre_774);
      }

      .st8 {
        fill: url(#Degradado_sin_nombre_77);
      }

      .st9 {
        fill: #49a5de;
      }

      .st10 {
        fill: url(#Degradado_sin_nombre_39);
      }

      .st11 {
        fill: url(#Degradado_sin_nombre_60);
      }

      .st12 {
        fill: url(#Degradado_sin_nombre_781);
      }

      .st13 {
        fill: url(#Degradado_sin_nombre_773);
      }
    </style>
    <radialGradient id="Degradado_sin_nombre_39" data-name="Degradado sin nombre 39" cx="1270.58" cy="251.2" fx="1422.95" fy="117.31" r="202.83" gradientTransform="translate(-168.75 38) scale(.86)" gradientUnits="userSpaceOnUse">
      <stop offset=".73" stop-color="#eee"/>
      <stop offset=".85" stop-color="#ececec"/>
      <stop offset=".9" stop-color="#e5e5e5"/>
      <stop offset=".93" stop-color="#d9d9d9"/>
      <stop offset=".95" stop-color="#c8c8c8"/>
      <stop offset=".97" stop-color="#b2b2b2"/>
      <stop offset=".99" stop-color="#989898"/>
      <stop offset="1" stop-color="#8c8c8c"/>
    </radialGradient>
    <linearGradient id="Degradado_sin_nombre_60" data-name="Degradado sin nombre 60" x1="143.84" y1="417.14" x2="147.32" y2="23.82" gradientUnits="userSpaceOnUse">
      <stop offset="0" stop-color="#0c2a6c"/>
      <stop offset=".5" stop-color="#1b8fd6"/>
      <stop offset=".84" stop-color="#83d0ef"/>
    </linearGradient>
    <linearGradient id="Degradado_sin_nombre_77" data-name="Degradado sin nombre 77" x1="350.99" y1="424.76" x2="350.16" y2="79.39" gradientUnits="userSpaceOnUse">
      <stop offset="0" stop-color="#0c2a6c"/>
      <stop offset=".5" stop-color="#1b8fd6"/>
      <stop offset="1" stop-color="#83d0ef"/>
    </linearGradient>
    <linearGradient id="Degradado_sin_nombre_771" data-name="Degradado sin nombre 77" x1="595.33" y1="424.06" x2="594.51" y2="79.47" xlink:href="#Degradado_sin_nombre_77"/>
    <linearGradient id="Degradado_sin_nombre_772" data-name="Degradado sin nombre 77" x1="1712.42" y1="424.84" x2="1711.6" y2="79.14" xlink:href="#Degradado_sin_nombre_77"/>
    <linearGradient id="Degradado_sin_nombre_773" data-name="Degradado sin nombre 77" x1="1475.39" y1="424.18" x2="1474.57" y2="79.99" xlink:href="#Degradado_sin_nombre_77"/>
    <linearGradient id="Degradado_sin_nombre_774" data-name="Degradado sin nombre 77" x1="1207.16" y1="424.86" x2="1206.33" y2="79.07" xlink:href="#Degradado_sin_nombre_77"/>
    <linearGradient id="Degradado_sin_nombre_78" data-name="Degradado sin nombre 78" x1="1815.94" y1="411.2" x2="1815.94" y2="152.01" gradientUnits="userSpaceOnUse">
      <stop offset="0" stop-color="#0c2a6c"/>
      <stop offset=".5" stop-color="#1b8fd6"/>
      <stop offset="1" stop-color="#83d0ef"/>
    </linearGradient>
    <linearGradient id="Degradado_sin_nombre_781" data-name="Degradado sin nombre 78" x1="1815.94" y1="426.09" x2="1815.94" y2="166.91" xlink:href="#Degradado_sin_nombre_78"/>
    <linearGradient id="Degradado_sin_nombre_782" data-name="Degradado sin nombre 78" x1="1811.51" y1="418.07" x2="1811.51" y2="158.89" xlink:href="#Degradado_sin_nombre_78"/>
    <linearGradient id="Degradado_sin_nombre_84" data-name="Degradado sin nombre 84" x1="846.68" y1="344.37" x2="1030.09" y2="108.45" gradientUnits="userSpaceOnUse">
      <stop offset="0" stop-color="#83d0ef"/>
      <stop offset=".5" stop-color="#1b8fd6"/>
      <stop offset="1" stop-color="#0c2a6c"/>
    </linearGradient>
  </defs>
  <circle class="st10" cx="920.32" cy="253.31" r="173.85"/>
  <g>
    <path class="st11" d="M41.75,427.55V79.08h98.53s23.55-.62,44.2,11.26,31.81,28.82,31.81,28.82c0,0,20.14,25.72,20.66,63,.52,37.28-10.22,56.39-10.22,56.39,0,0-13.74,34.81-49.37,50.3-5.36,2.33-9.14,3.97-11.69,5.08-.39.17-.75.32-1.08.47-.81.35,11.33-4.93,11.33-4.93l-12.78,5.56-.65.43,86.34,132.09h-59.18l-82-130.86-19.62.41-.21,130.44h-46.06Z"/>
    <path class="st5" d="M85.37,128.72v117.6h58.39c4.4-.44,11.62-1.73,19.14-6.12,14.79-8.64,20.09-23.08,22.31-29.14,4.68-12.77,3.99-23.67,3.51-30.16-.14-1.93-1.12-13.79-6.77-26.44-2.51-5.62-4.76-8.74-6.66-10.95-3.45-4-6.97-6.41-9.09-7.85-2.89-1.95-5.47-3.7-9.3-4.96-6.4-2.11-13.63-2-13.63-2h0"/>
  </g>
  <polygon class="st8" points="259.07 79.08 259.14 427.48 442.02 427.55 442.02 378.45 305.2 378.38 305.2 278.07 437.95 278.07 437.95 228.49 305.2 228.49 305.2 128.1 442.02 128.03 442.02 79.08 259.07 79.08"/>
  <polygon class="st4" points="455.81 79.27 456.01 426.72 513.75 426.72 513.75 278.71 675.69 278.71 675.69 426.72 733.84 426.72 733.84 79.27 675.69 79.27 675.69 227.38 513.85 227.38 513.95 79.27 455.81 79.27"/>
  <polygon class="st0" points="1612.95 78.84 1612.95 127.72 1687.18 127.72 1687.18 427.79 1736.13 427.79 1736.13 127.79 1810.35 127.79 1810.35 78.87 1612.95 78.84"/>
  <g>
    <path class="st13" d="M1460.64,80.32s-54.8,1.38-100.19,48.76c0,0-38.26,35.54-47.4,98.55-9.13,63.02,18.89,109.92,18.89,109.92,0,0,21.38,47.11,73.48,73.14,52.1,26.03,100.67,13.43,100.67,13.43,0,0,73.48-12.19,110.84-85.12,37.36-72.93,15.36-133.06,15.36-133.06,0,0-12.66-58.47-63.1-94.42,0,0-46.5-38.22-108.56-31.2Z"/>
    <path class="st5" d="M1464.83,130.4s-38.79.98-70.91,34.64c0,0-27.08,25.25-33.55,70.02-6.46,44.77,13.37,78.09,13.37,78.09,0,0,15.13,33.47,52.01,51.97,36.88,18.5,71.25,9.54,71.25,9.54,0,0,52.01-8.66,78.45-60.48s10.87-94.54,10.87-94.54c0,0-8.96-41.54-44.66-67.09,0,0-32.91-27.16-76.84-22.17Z"/>
  </g>
  <g>
    <path class="st7" d="M1107.3,78.77v349.09h105.35s40.66-.21,66.27-29.02c25.61-28.82,27.16-58.46,27.16-58.46,0,0,9.91-76.74-44.2-106.07,0,0,33.05-26.85,22.72-87.37,0,0-6.82-66.31-85.93-68.16h-91.37Z"/>
    <path class="st5" d="M1148.61,120.44v85.93h45.17s41.45,4.41,41.59-42.96c0,0,4.41-43.65-43.38-42.96h-43.38Z"/>
    <path class="st5" d="M1148.61,267.16v111.54h58.53s46.41.28,48.75-55.77c.2-4.03.08-10.01-1.65-16.94-1.01-4.04-3.87-14.9-13.27-24.69-2.37-2.46-6.99-7.19-14.68-10.56-5.97-2.62-11.36-3.37-14.87-3.58h-62.79Z"/>
  </g>
  <g>
    <path class="st6" d="M1786.55,344.77v16.33s-11.65.14-13.68,13.2c-2.03,13.07,2.03,18.1,2.03,18.1,0,0,5.96,10.62,18.7,5.72,0,0,5.42-1.63,9.21-11.3,3.79-9.66,5.55-17.15,5.55-17.15,0,0,5.01-18.1,14.9-24.09,9.89-5.99,18.83-4.63,18.83-4.63,0,0,13.82-.54,23.44,9.94,9.62,10.48,9.62,24.77,9.62,24.77,0,0,1.63,19.74-7.99,29.81,0,0-7.05,10.89-25.2,12.8l.14-17.29c1.9-.62,13.04-4.42,15.85-12.39.48-1.36,1.05-3.79,1.37-6.28.24-1.91.62-5.05-.03-9.05-.23-1.38-.62-3.69-1.88-6.45-1.4-3.06-3.19-5.22-4.47-6.53-2.25-1.4-5.57-2.98-9.76-3.4-2.31-.24-4.99-.51-7.86.95-2.28,1.16-3.64,2.9-4.34,3.95-2.83,4.39-4.54,8.18-5.55,10.75-1.62,4.1-1.9,6.14-4.47,14.16-1.55,4.85-2.33,7.27-2.85,8.44-1.34,3.04-5.53,12.55-15.45,17.29-5.35,2.56-10.17,2.65-12.87,2.7-5.52.1-12.41-1.2-20.19-5.96,0,0-10.84-7.35-12.6-24.77-.48-3.38-1.64-14.54,5.15-25.05,1.57-2.43,5.57-8.44,13.41-11.98,4.41-1.99,8.42-2.48,10.97-2.59Z"/>
    <path class="st12" d="M1797.25,163.29v16.61c-3.43,1.33-9.36,4.21-14.5,10.21-2.23,2.61-7.65,9.13-8.26,18.92-.09,1.39-.37,7.48,2.65,14.25,2.24,5.02,5.3,8.21,7.92,10.93,2.51,2.61,9.89,6.67,9.89,6.67,3.58,1.67,9.35,3.85,16.77,4.42,8.83.69,15.66-1.23,18.73-2.25,3.42-1.13,9.65-3.27,15.72-8.85,3.01-2.77,8.87-8.16,10.7-17.19,1.44-7.14-.37-12.91-1.21-15.48-.5-1.53-2.87-8.36-9.48-14.43-4.66-4.28-9.45-6.35-12.33-7.35v-16.47c3.26.78,26.3,6.7,36.27,28.45,1.43,3.12,8.04,17.55,2.62,33.49-2.3,6.75-5.85,11.09-8.4,14.16-14.03,16.84-34.17,20.64-39.83,21.1-13.05,1.07-22.84-.36-30.95-3.28-10.8-3.89-17.59-9.57-19.12-10.88-3.12-2.68-8.17-7.1-12.12-14.7-.83-1.6-4.62-9.11-5.15-19.56-.14-2.71-.32-6.84.95-12.02,1.4-5.74,3.82-9.62,5.76-12.68,6.43-10.15,14.45-15.55,16.46-16.86,6.35-4.12,12.45-6.16,16.94-7.21Z"/>
    <g>
      <polygon class="st3" points="1875.26 344.02 1747.76 298.28 1875.26 252.81 1875.26 269.29 1845.72 279.5 1845.72 316.93 1875.26 327.14 1875.26 344.02"/>
      <polygon class="st5" points="1786.65 298.28 1824.92 311.62 1824.92 285.21 1786.65 298.28"/>
    </g>
  </g>
  <circle class="st9" cx="929.33" cy="237.89" r="126.44"/>
  <circle class="st2" cx="929.33" cy="237.89" r="107.21"/>
  <path class="st1" d="M966.51,117.01c-20.67,26.73-41.34,53.46-62.01,80.2l127.86-118.36-115.67,144.18,207.8-201.81-221.84,257.58,162.15-149.55-105.14,143.15c29.06-27.09,58.12-54.18,87.19-81.27,3.43,8.99,18.51,51.45-1.77,97.63-14.55,33.12-39.73,50.81-51.38,57.83-26.34,15.86-50.93,17.78-56.96,18.14-45.73,2.71-78.13-21.8-87.17-29.22-30.01-24.62-39.65-55.34-41.84-62.95-10.61-36.82-1.07-67.38,2.81-78.01,2.06-5.65,17.47-46.27,60.1-68.61,9.15-4.79,23.41-10.86,41.78-13.35,23.82-3.23,43.19,1.09,54.11,4.41Z"/>
</svg>