<svg xmlns="http://www.w3.org/2000/svg" width="26" height="34" viewBox="0 0 26 34" fill="none">
  <g clip-path="url(#clip0_129_229)">
    <path d="M18.8237 31.3352V33.4061C18.8237 33.4322 18.5776 33.8006 18.5293 33.8382C18.2738 34.0324 17.8217 34.0501 17.5358 33.904C17.4348 33.8528 17.0931 33.4885 17.0931 33.4061V31.3352H15.5193V33.4061C15.5193 33.6545 14.9694 33.9906 14.6939 33.999C14.389 34.0084 13.7887 33.6963 13.7887 33.4061V31.3352H12.2148V33.4061C12.2148 33.6545 11.665 33.9906 11.3895 33.999C11.0846 34.0084 10.4843 33.6963 10.4843 33.4061V31.3352H8.91044V33.4061C8.91044 33.4885 8.5677 33.8528 8.46782 33.904C8.18185 34.0491 7.72977 34.0324 7.47429 33.8382C7.42593 33.8017 7.17991 33.4322 7.17991 33.4061V31.3352H0.52694C0.368185 31.3352 -0.0733836 30.7496 0.0117761 30.5189L0.0506762 0.546956C0.160017 0.292267 0.393418 0.143002 0.642589 0.0407086L25.0845 0C25.5303 0.0177448 26.0065 0.336107 25.9897 0.820434V30.5189C26.0749 30.7496 25.6333 31.3352 25.4745 31.3352H18.8247H18.8237ZM24.2539 1.80057H1.74651V29.616H24.2539V1.80057Z" fill="#0C2A6C"/>
    <path d="M18.5479 10.3953C19.5078 10.5644 19.6634 12.0518 18.3103 12.1917H4.38193C3.89936 12.1395 3.58816 11.9307 3.48197 11.4454L3.47566 4.18255C3.51456 3.68778 4.0066 3.45919 4.45763 3.43935L21.8775 3.49572C22.1793 3.57296 22.3317 3.72953 22.4789 3.99257L22.5252 27.0806C22.542 27.4511 22.2402 27.7507 21.9143 27.8812L4.29887 27.901C3.8941 27.9146 3.51141 27.544 3.47461 27.1568L3.47987 14.3451C3.6218 13.7637 4.14327 13.5069 4.71521 13.7355C4.83086 13.7825 5.20724 14.1676 5.20724 14.2626V26.1777H20.7894V5.23888H5.20829V10.3953H18.5479Z" fill="#0C2A6C"/>
    <path d="M12.8424 18.2875H14.8495C15.2826 18.2875 15.6916 19.0725 15.5003 19.4806L13.2399 23.564C12.7247 24.1464 11.7564 23.7738 11.7343 23.0139C11.7122 22.254 12.9739 20.8428 13.1579 20.0057H10.9942C10.6283 20.0057 10.3213 19.1539 10.52 18.8314L12.792 14.7188C13.59 14.0653 14.5635 14.8221 14.2008 15.7657L12.8445 18.2865L12.8424 18.2875Z" fill="#0C2A6C"/>
  </g>
  <defs>
    <clipPath id="clip0_129_229">
      <rect width="26" height="34" fill="white"/>
    </clipPath>
  </defs>
</svg>
